<svg width="435" height="88" viewBox="0 0 435 88" fill="none" xmlns="http://www.w3.org/2000/svg">
<path d="M41.4185 63.003L29.8345 56.5423C29.8345 56.5423 21.3025 51.4464 20.4384 43.4974V24.8148C25.0884 22.9424 33.5244 20.5694 44.2031 21.2141C44.7426 21.2507 45.2753 21.2941 45.8011 21.3444L55.067 14.4516C52.2207 13.9166 49.1481 13.5051 45.8629 13.2994C30.8427 12.3666 18.9706 15.7821 12.4276 18.4844V45.356C13.6416 56.796 25.6508 64.1209 25.6508 64.1209L41.4185 73.1673V63.003Z" fill="white"/>
<path d="M59.0998 63.0442C65.4097 59.1142 69.998 50.2393 69.998 42.7567C69.998 41.3713 69.998 39.9744 69.998 38.5661H64.0654V38.5113H45.2182L42.564 40.1573V47.2353H60.2658C58.9489 50.74 56.5485 54.0046 53.613 55.7947L41.4186 63.003V73.1673L59.0998 63.0442Z" fill="white"/>
<path d="M79.3324 9.54775C77.3709 8.98078 75.311 8.44811 73.1529 7.94973C70.1352 7.26387 67.2592 6.71518 64.5249 6.30367C65.7137 7.79425 66.9048 9.28714 68.0982 10.7823L28.7372 35.3838V47.297H37.7287L37.7836 39.8967L73.3998 17.8603L76.2255 23.642C76.7696 21.6576 77.2863 19.584 77.7756 17.4213C78.3928 14.6916 78.9118 12.0671 79.3324 9.54775Z" fill="white"/>
<path d="M69.5384 32.5238H59.4221V30.4868L69.5384 24.7188V32.5238Z" fill="white"/>
<path d="M6.78307 46.5289V14.9865C14.5606 11.7562 28.6823 7.06497 46.5556 8.17605C49.363 8.35894 52.0401 8.62643 54.5869 8.9785C55.8009 6.59174 57.2549 4.19126 58.9352 1.83879C55.1425 1.21466 51.0822 0.734561 46.7613 0.46022C25.7469 -0.890907 9.1424 4.79479 0 8.70415V46.9267C0 70.4171 41.4186 87.5771 41.4186 87.5771V79.7378C36.3776 77.5156 6.78307 64.1895 6.78307 46.5289Z" fill="white"/>
<path d="M65.7594 72.454C78.2008 62.1663 81.0745 54.1555 81.0745 43.3465C81.0745 36.9064 81.0745 29.9861 81.0745 23.1345C80.6539 23.7106 80.2103 24.2798 79.744 24.8422C78.2557 26.6392 76.6508 28.2235 74.991 29.5883C74.991 34.1835 74.991 38.765 74.991 43.0859C74.991 52.3037 72.4465 58.8193 61.7541 67.5982L41.4186 79.7378V87.577L65.7594 72.454Z" fill="white"/>
<path d="M427.292 5.72163L428.315 8.9355L428.316 8.93941L428.418 9.248L428.619 10.0507L428.839 10.9335L429.114 10.0664L429.422 9.0898V9.08687L430.447 5.72163H431.696V11.2744H431.079V7.62398L431.13 6.55855L430.625 6.47945C430.47 7.07194 430.347 7.5121 430.253 7.80464L430.169 8.04781L430.166 8.0605L429.143 11.2744H428.594L427.571 8.0605L427.11 6.47261L426.607 6.55757C426.641 7.20918 426.658 7.64856 426.658 7.88081V11.2744H426.041V5.72163H427.292ZM425.116 5.72163V6.18452H423.162V11.2744H422.391V6.18452H420.437V5.72163H425.116Z" fill="white" stroke="white" stroke-width="0.514091"/>
<path d="M434.302 8.18948C434.302 12.5747 430.75 16.127 426.365 16.127C421.985 16.127 418.432 12.5747 418.432 8.18948C418.432 3.80942 421.985 0.25705 426.365 0.25705C430.75 0.25705 434.302 3.80942 434.302 8.18948Z" stroke="white" stroke-width="0.514091" stroke-miterlimit="10"/>
<path d="M199.184 75.157H195.684L194.184 71.8571H187.684L186.184 75.157H182.684L188.884 62.3571H192.984L199.184 75.157ZM191.284 65.057L190.984 64.3571L190.884 64.557C190.818 64.8237 190.751 65.0904 190.684 65.3571C190.551 65.6237 189.851 67.157 188.584 69.957H193.384L191.784 66.257L191.284 65.057ZM214.684 73.3571C216.818 73.3571 218.284 72.5237 219.084 70.8571L222.184 71.757C221.518 73.0237 220.551 73.957 219.284 74.557C218.018 75.157 216.484 75.457 214.684 75.457C211.951 75.457 209.851 74.857 208.384 73.657C206.918 72.5237 206.184 70.8904 206.184 68.757C206.184 66.6904 206.884 65.0904 208.284 63.957C209.751 62.8237 211.818 62.257 214.484 62.257C216.484 62.257 218.118 62.557 219.384 63.157C220.584 63.757 221.451 64.6571 221.984 65.8571L218.884 66.457C218.618 65.857 218.084 65.357 217.284 64.957C216.551 64.557 215.651 64.3571 214.584 64.3571C212.984 64.3571 211.784 64.7237 210.984 65.457C210.118 66.257 209.684 67.357 209.684 68.757C209.684 70.2237 210.118 71.357 210.984 72.157C211.851 72.957 213.084 73.3571 214.684 73.3571ZM246.184 75.257H242.684L241.284 71.957H234.784L233.284 75.257H229.784L235.884 62.457H240.084L246.184 75.257ZM238.284 65.057L237.984 64.457L237.884 64.657C237.818 64.857 237.718 65.1237 237.584 65.457C237.518 65.7237 236.851 67.2237 235.584 69.957H240.384L238.784 66.3571L238.284 65.057ZM268.784 68.757C268.784 70.0237 268.451 71.157 267.784 72.157C267.118 73.157 266.151 73.9237 264.884 74.457C263.684 74.9237 262.251 75.157 260.584 75.157H253.784V62.457H259.884C262.751 62.457 264.951 62.9904 266.484 64.057C268.018 65.1237 268.784 66.6904 268.784 68.757ZM265.284 68.757C265.284 67.357 264.818 66.2904 263.884 65.557C262.951 64.8904 261.584 64.557 259.784 64.557H257.284V73.157H260.284C261.818 73.157 263.051 72.757 263.984 71.957C264.851 71.157 265.284 70.0904 265.284 68.757ZM292.584 75.157H278.784V62.457H292.084V64.557H282.284V67.757H291.284V69.757H282.284V73.157H292.584V75.157ZM318.984 75.157H315.784V67.3571C315.784 67.2237 315.784 67.0571 315.784 66.8571C315.784 66.7237 315.818 65.9904 315.884 64.657C315.351 66.257 314.951 67.3904 314.684 68.057L311.584 75.157H309.084L306.084 68.057L304.784 64.657C304.851 66.057 304.884 66.9571 304.884 67.3571V75.157H301.784V62.3571H306.484L309.584 69.557L309.784 70.157L310.384 71.957L311.084 69.8571L314.184 62.3571H318.984V75.157ZM343.084 62.457L337.084 69.957V75.157H333.584V69.957L327.584 62.457H331.284L335.284 67.8571L339.384 62.457H343.084Z" fill="white"/>
<path d="M118.074 69.147L172.314 71.097V68.187L118.074 69.147Z" fill="white"/>
<path d="M405.314 69.147L351.074 71.097V68.187L405.314 69.147Z" fill="white"/>
<path d="M119.474 36.757C121.008 36.757 122.474 36.557 123.874 36.157C125.341 35.6904 126.441 35.1237 127.174 34.4571V30.757H120.374V26.5571H132.574V36.5571C131.108 38.0237 129.174 39.1571 126.774 39.9571C124.374 40.8237 121.874 41.257 119.274 41.257C114.741 41.257 111.241 40.0237 108.774 37.5571C106.308 35.0904 105.074 31.6237 105.074 27.157C105.074 22.6904 106.308 19.2571 108.774 16.8571C111.241 14.5237 114.808 13.3571 119.474 13.3571C126.008 13.3571 130.174 15.6904 131.974 20.3571L126.574 21.9571C125.974 20.5571 125.074 19.5237 123.874 18.8571C122.608 18.1237 121.141 17.757 119.474 17.757C116.674 17.757 114.574 18.5904 113.174 20.257C111.708 21.857 110.974 24.157 110.974 27.157C110.974 30.2237 111.708 32.5904 113.174 34.257C114.641 35.9237 116.741 36.757 119.474 36.757ZM164.074 40.8571H157.374L150.874 30.5571H143.974V40.8571H138.074V13.757H152.174C155.508 13.757 158.074 14.4571 159.874 15.8571C161.741 17.1904 162.674 19.1904 162.674 21.8571C162.674 23.7237 162.108 25.357 160.974 26.757C159.841 28.0904 158.341 28.9904 156.474 29.4571L164.074 40.8571ZM156.674 22.0571C156.674 19.4571 154.974 18.157 151.574 18.157H143.974V26.157H151.674C153.341 26.157 154.608 25.7904 155.474 25.0571C156.274 24.3237 156.674 23.3237 156.674 22.0571ZM195.474 27.157C195.474 29.957 194.874 32.457 193.674 34.657C192.541 36.7904 190.908 38.4237 188.774 39.5571C186.574 40.6904 184.041 41.257 181.174 41.257C176.774 41.257 173.308 39.9904 170.774 37.4571C168.308 34.9904 167.074 31.557 167.074 27.157C167.074 22.8237 168.308 19.4237 170.774 16.9571C173.308 14.5571 176.808 13.3571 181.274 13.3571C185.674 13.3571 189.141 14.5904 191.674 17.0571C194.208 19.5237 195.474 22.8904 195.474 27.157ZM189.374 27.157C189.374 24.2237 188.674 21.9237 187.274 20.257C185.808 18.5904 183.808 17.757 181.274 17.757C178.608 17.757 176.574 18.5904 175.174 20.257C173.708 21.9237 172.974 24.2237 172.974 27.157C172.974 30.157 173.708 32.5237 175.174 34.257C176.641 35.9237 178.641 36.757 181.174 36.757C183.841 36.757 185.874 35.9237 187.274 34.257C188.674 32.5904 189.374 30.2237 189.374 27.157ZM234.874 13.757L227.574 40.8571H220.674L216.874 25.157C216.408 23.2904 216.008 21.3571 215.674 19.3571C215.341 21.0237 215.074 22.3237 214.874 23.257C214.674 24.1237 213.274 29.9904 210.674 40.8571H203.674L196.374 13.757H202.374L206.474 31.257L207.374 35.4571C207.708 33.7237 208.074 32.0237 208.474 30.3571C208.808 28.7571 210.141 23.2237 212.474 13.757H218.974L222.574 28.157C222.841 29.2237 223.308 31.6571 223.974 35.4571L224.474 33.257L225.574 28.8571L228.874 13.757H234.874ZM259.874 18.157H250.874V40.8571H244.974V18.157H235.874V13.757H259.874V18.157ZM287.174 40.8571H281.274V29.257H269.074V40.8571H263.174V13.757H269.074V24.5571H281.274V13.757H287.174V40.8571ZM327.074 33.0571C327.074 35.6571 326.041 37.6904 323.974 39.157C321.974 40.557 318.974 41.257 314.974 41.257C311.374 41.257 308.574 40.6237 306.574 39.3571C304.508 38.1571 303.174 36.2904 302.574 33.757L308.274 32.8571C308.674 34.3237 309.441 35.3571 310.574 35.9571C311.641 36.6237 313.174 36.9571 315.174 36.9571C319.308 36.9571 321.374 35.7571 321.374 33.3571C321.374 32.5571 321.108 31.9237 320.574 31.4571C320.108 30.9237 319.441 30.4904 318.574 30.157C317.774 29.8237 316.141 29.4237 313.674 28.9571C311.608 28.4904 310.141 28.1237 309.274 27.8571C308.474 27.5237 307.741 27.1904 307.074 26.8571C306.408 26.4571 305.841 25.9571 305.374 25.3571C304.908 24.8237 304.541 24.1904 304.274 23.4571C304.008 22.7237 303.874 21.8571 303.874 20.8571C303.874 18.3904 304.841 16.5237 306.774 15.257C308.708 13.9237 311.474 13.257 315.074 13.257C318.541 13.257 321.174 13.7904 322.974 14.8571C324.708 15.9237 325.808 17.6571 326.274 20.0571L320.574 20.8571C320.308 19.6571 319.708 18.757 318.774 18.157C317.908 17.6237 316.641 17.3571 314.974 17.3571C311.441 17.3571 309.674 18.4237 309.674 20.5571C309.674 21.2904 309.841 21.857 310.174 22.257C310.574 22.7237 311.141 23.1237 311.874 23.4571C312.608 23.7237 314.108 24.1237 316.374 24.657C319.108 25.1904 321.041 25.6904 322.174 26.157C323.374 26.6237 324.308 27.157 324.974 27.757C325.641 28.4237 326.141 29.1904 326.474 30.0571C326.874 30.9237 327.074 31.9237 327.074 33.0571ZM357.574 40.8571H350.574L340.474 28.3571L337.074 30.9571V40.8571H331.174V13.657H337.074V25.9571L349.674 13.657H356.574L344.574 25.157L357.574 40.8571ZM366.074 40.8571H360.174V13.757H366.074V40.8571ZM393.074 40.8571H372.174V13.757H378.074V36.4571H393.074V40.8571ZM418.074 40.8571H397.174V13.757H403.074V36.4571H418.074V40.8571Z" fill="white"/>
</svg>
