<svg width="435" height="88" viewBox="0 0 435 88" fill="none" xmlns="http://www.w3.org/2000/svg">
<path d="M41.4186 63.003L29.8346 56.5423C29.8346 56.5423 21.3026 51.4464 20.4384 43.4974V24.8148C25.0885 22.9424 33.5244 20.5694 44.2031 21.2141C44.7427 21.2507 45.2754 21.2941 45.8012 21.3444L55.067 14.4516C52.2207 13.9166 49.1481 13.5051 45.8629 13.2994C30.8428 12.3666 18.9707 15.7821 12.4276 18.4844V45.356C13.6416 56.796 25.6509 64.1209 25.6509 64.1209L41.4186 73.1673V63.003Z" fill="#CDCDCD"/>
<path d="M59.0998 63.0441C65.4097 59.1142 69.998 50.2393 69.998 42.7567C69.998 41.3713 69.998 39.9744 69.998 38.5661H64.0654V38.5113H45.2182L42.564 40.1573V47.2353H60.2658C58.9489 50.74 56.5485 54.0046 53.613 55.7947L41.4186 63.003V73.1673L59.0998 63.0441Z" fill="url(#paint0_linear_13_33)"/>
<path d="M79.3324 9.54775C77.3709 8.98078 75.311 8.44811 73.1529 7.94973C70.1352 7.26387 67.2592 6.71518 64.5249 6.30367C65.7137 7.79425 66.9048 9.28714 68.0982 10.7823L28.7372 35.3838V47.297H37.7287L37.7836 39.8967L73.3998 17.8603L76.2255 23.642C76.7696 21.6576 77.2863 19.584 77.7756 17.4213C78.3928 14.6916 78.9118 12.0671 79.3324 9.54775Z" fill="url(#paint1_linear_13_33)"/>
<path d="M69.5385 32.5238H59.4222V30.4868L69.5385 24.7188V32.5238Z" fill="#EF8021"/>
<path d="M6.78307 46.5289V14.9865C14.5606 11.7562 28.6823 7.06496 46.5556 8.17604C49.363 8.35893 52.0401 8.62642 54.5869 8.9785C55.8009 6.59173 57.2549 4.19125 58.9352 1.83878C55.1425 1.21466 51.0822 0.734553 46.7613 0.460213C25.7469 -0.890915 9.1424 4.79479 0 8.70414V46.9266C0 70.4171 41.4186 87.577 41.4186 87.577V79.7378C36.3776 77.5156 6.78307 64.1895 6.78307 46.5289Z" fill="url(#paint2_linear_13_33)"/>
<path d="M65.7594 72.454C78.2008 62.1663 81.0745 54.1555 81.0745 43.3465C81.0745 36.9063 81.0745 29.9861 81.0745 23.1345C80.6539 23.7106 80.2103 24.2798 79.744 24.8422C78.2557 26.6392 76.6508 28.2235 74.991 29.5883C74.991 34.1835 74.991 38.765 74.991 43.0859C74.991 52.3037 72.4465 58.8193 61.7541 67.5982L41.4186 79.7378V87.577L65.7594 72.454Z" fill="url(#paint3_linear_13_33)"/>
<path d="M427.292 5.72163L428.315 8.93549L428.316 8.9394L428.418 9.24799L428.619 10.0507L428.839 10.9335L429.114 10.0664L429.422 9.08979V9.08686L430.447 5.72163H431.696V11.2744H431.079V7.62397L431.13 6.55854L430.625 6.47944C430.47 7.07194 430.347 7.51209 430.253 7.80463L430.169 8.0478L430.166 8.06049L429.143 11.2744H428.594L427.571 8.06049L427.11 6.4726L426.607 6.55756C426.641 7.20917 426.658 7.64855 426.658 7.88081V11.2744H426.041V5.72163H427.292ZM425.116 5.72163V6.18452H423.162V11.2744H422.391V6.18452H420.437V5.72163H425.116Z" fill="black" stroke="black" stroke-width="0.514091"/>
<path d="M434.302 8.18947C434.302 12.5747 430.75 16.127 426.365 16.127C421.985 16.127 418.432 12.5747 418.432 8.18947C418.432 3.80941 421.985 0.257042 426.365 0.257042C430.75 0.257042 434.302 3.80941 434.302 8.18947Z" stroke="black" stroke-width="0.514091" stroke-miterlimit="10"/>
<path d="M199.185 75.157H195.685L194.185 71.857H187.685L186.185 75.157H182.685L188.885 62.357H192.984L199.185 75.157ZM191.285 65.057L190.984 64.357L190.885 64.557C190.818 64.8237 190.751 65.0904 190.685 65.357C190.551 65.6237 189.851 67.157 188.585 69.957H193.385L191.785 66.257L191.285 65.057ZM214.685 73.357C216.818 73.357 218.285 72.5237 219.085 70.857L222.185 71.757C221.518 73.0237 220.551 73.957 219.285 74.557C218.018 75.157 216.485 75.457 214.685 75.457C211.951 75.457 209.851 74.857 208.385 73.657C206.918 72.5237 206.185 70.8904 206.185 68.757C206.185 66.6904 206.885 65.0904 208.285 63.957C209.751 62.8237 211.818 62.257 214.484 62.257C216.484 62.257 218.118 62.557 219.385 63.157C220.585 63.757 221.451 64.657 221.984 65.857L218.885 66.457C218.618 65.857 218.085 65.357 217.285 64.957C216.551 64.557 215.651 64.357 214.585 64.357C212.985 64.357 211.784 64.7237 210.984 65.457C210.118 66.257 209.685 67.357 209.685 68.757C209.685 70.2237 210.118 71.357 210.984 72.157C211.851 72.957 213.085 73.357 214.685 73.357ZM246.185 75.257H242.685L241.285 71.957H234.785L233.285 75.257H229.785L235.885 62.457H240.085L246.185 75.257ZM238.285 65.057L237.984 64.457L237.885 64.657C237.818 64.857 237.718 65.1237 237.585 65.457C237.518 65.7237 236.851 67.2237 235.585 69.957H240.385L238.785 66.357L238.285 65.057ZM268.785 68.757C268.785 70.0237 268.451 71.157 267.785 72.157C267.118 73.157 266.151 73.9237 264.884 74.457C263.684 74.9237 262.251 75.157 260.585 75.157H253.785V62.457H259.884C262.751 62.457 264.951 62.9904 266.484 64.057C268.018 65.1237 268.785 66.6904 268.785 68.757ZM265.285 68.757C265.285 67.357 264.818 66.2904 263.884 65.557C262.951 64.8904 261.585 64.557 259.785 64.557H257.285V73.157H260.285C261.818 73.157 263.051 72.757 263.984 71.957C264.851 71.157 265.285 70.0904 265.285 68.757ZM292.585 75.157H278.785V62.457H292.085V64.557H282.285V67.757H291.285V69.757H282.285V73.157H292.585V75.157ZM318.984 75.157H315.785V67.357C315.785 67.2237 315.785 67.057 315.785 66.857C315.785 66.7237 315.818 65.9904 315.884 64.657C315.351 66.257 314.951 67.3904 314.685 68.057L311.585 75.157H309.085L306.085 68.057L304.785 64.657C304.851 66.057 304.884 66.957 304.884 67.357V75.157H301.785V62.357H306.484L309.585 69.557L309.785 70.157L310.384 71.957L311.085 69.857L314.185 62.357H318.984V75.157ZM343.085 62.457L337.085 69.957V75.157H333.585V69.957L327.585 62.457H331.285L335.285 67.857L339.384 62.457H343.085Z" fill="#FF7623"/>
<path d="M118.074 69.147L172.314 71.097V68.187L118.074 69.147Z" fill="#EF7B21"/>
<path d="M405.314 69.147L351.074 71.097V68.187L405.314 69.147Z" fill="#EF7B21"/>
<path d="M119.475 36.757C121.008 36.757 122.474 36.557 123.874 36.157C125.341 35.6904 126.441 35.1237 127.174 34.4571V30.757H120.374V26.5571H132.574V36.5571C131.108 38.0237 129.174 39.1571 126.774 39.9571C124.374 40.8237 121.874 41.257 119.274 41.257C114.741 41.257 111.241 40.0237 108.774 37.5571C106.308 35.0904 105.074 31.6237 105.074 27.157C105.074 22.6904 106.308 19.257 108.774 16.857C111.241 14.5237 114.808 13.357 119.475 13.357C126.008 13.357 130.175 15.6904 131.975 20.357L126.574 21.9571C125.974 20.5571 125.074 19.5237 123.874 18.857C122.608 18.1237 121.141 17.757 119.475 17.757C116.675 17.757 114.574 18.5904 113.174 20.257C111.708 21.857 110.974 24.157 110.974 27.157C110.974 30.2237 111.708 32.5904 113.174 34.257C114.641 35.9237 116.741 36.757 119.475 36.757ZM164.074 40.857H157.374L150.874 30.5571H143.975V40.857H138.074V13.757H152.174C155.508 13.757 158.074 14.457 159.874 15.857C161.741 17.1904 162.674 19.1904 162.674 21.857C162.674 23.7237 162.108 25.357 160.975 26.757C159.841 28.0904 158.341 28.9904 156.475 29.4571L164.074 40.857ZM156.674 22.0571C156.674 19.4571 154.974 18.157 151.574 18.157H143.975V26.157H151.674C153.341 26.157 154.608 25.7904 155.475 25.0571C156.275 24.3237 156.674 23.3237 156.674 22.0571ZM195.475 27.157C195.475 29.957 194.874 32.457 193.674 34.657C192.541 36.7904 190.908 38.4237 188.774 39.5571C186.574 40.6904 184.041 41.257 181.174 41.257C176.774 41.257 173.308 39.9904 170.774 37.4571C168.308 34.9904 167.074 31.557 167.074 27.157C167.074 22.8237 168.308 19.4237 170.774 16.9571C173.308 14.5571 176.808 13.357 181.274 13.357C185.674 13.357 189.141 14.5904 191.674 17.0571C194.208 19.5237 195.475 22.8904 195.475 27.157ZM189.374 27.157C189.374 24.2237 188.674 21.9237 187.274 20.257C185.808 18.5904 183.808 17.757 181.274 17.757C178.608 17.757 176.574 18.5904 175.174 20.257C173.708 21.9237 172.975 24.2237 172.975 27.157C172.975 30.157 173.708 32.5237 175.174 34.257C176.641 35.9237 178.641 36.757 181.174 36.757C183.841 36.757 185.874 35.9237 187.274 34.257C188.674 32.5904 189.374 30.2237 189.374 27.157ZM234.874 13.757L227.574 40.857H220.674L216.874 25.157C216.408 23.2904 216.008 21.357 215.674 19.357C215.341 21.0237 215.074 22.3237 214.874 23.257C214.674 24.1237 213.274 29.9904 210.674 40.857H203.674L196.374 13.757H202.374L206.475 31.257L207.374 35.4571C207.708 33.7237 208.075 32.0237 208.475 30.357C208.808 28.757 210.141 23.2237 212.475 13.757H218.975L222.574 28.157C222.841 29.2237 223.308 31.6571 223.975 35.4571L224.475 33.257L225.574 28.857L228.874 13.757H234.874ZM259.874 18.157H250.874V40.857H244.975V18.157H235.874V13.757H259.874V18.157ZM287.174 40.857H281.274V29.257H269.075V40.857H263.174V13.757H269.075V24.5571H281.274V13.757H287.174V40.857ZM327.075 33.0571C327.075 35.6571 326.041 37.6904 323.975 39.157C321.975 40.557 318.975 41.257 314.975 41.257C311.375 41.257 308.575 40.6237 306.575 39.357C304.508 38.157 303.175 36.2904 302.575 33.757L308.274 32.857C308.674 34.3237 309.441 35.3571 310.575 35.9571C311.641 36.6237 313.174 36.9571 315.174 36.9571C319.308 36.9571 321.374 35.757 321.374 33.357C321.374 32.557 321.108 31.9237 320.575 31.4571C320.108 30.9237 319.441 30.4904 318.575 30.157C317.775 29.8237 316.141 29.4237 313.674 28.9571C311.608 28.4904 310.141 28.1237 309.274 27.857C308.474 27.5237 307.741 27.1904 307.075 26.857C306.408 26.457 305.841 25.957 305.374 25.357C304.908 24.8237 304.541 24.1904 304.274 23.4571C304.008 22.7237 303.874 21.857 303.874 20.857C303.874 18.3904 304.841 16.5237 306.774 15.257C308.708 13.9237 311.475 13.257 315.075 13.257C318.541 13.257 321.175 13.7904 322.975 14.857C324.708 15.9237 325.808 17.6571 326.274 20.0571L320.575 20.857C320.308 19.657 319.708 18.757 318.774 18.157C317.908 17.6237 316.641 17.357 314.975 17.357C311.441 17.357 309.674 18.4237 309.674 20.5571C309.674 21.2904 309.841 21.857 310.174 22.257C310.574 22.7237 311.141 23.1237 311.874 23.4571C312.608 23.7237 314.108 24.1237 316.374 24.657C319.108 25.1904 321.041 25.6904 322.174 26.157C323.374 26.6237 324.308 27.157 324.975 27.757C325.641 28.4237 326.141 29.1904 326.475 30.0571C326.875 30.9237 327.075 31.9237 327.075 33.0571ZM357.575 40.857H350.575L340.475 28.357L337.075 30.9571V40.857H331.174V13.657H337.075V25.9571L349.674 13.657H356.575L344.575 25.157L357.575 40.857ZM366.074 40.857H360.174V13.757H366.074V40.857ZM393.074 40.857H372.174V13.757H378.074V36.4571H393.074V40.857ZM418.074 40.857H397.174V13.757H403.074V36.4571H418.074V40.857Z" fill="black"/>
<defs>
<linearGradient id="paint0_linear_13_33" x1="41.4165" y1="38.5078" x2="69.9994" y2="38.5078" gradientUnits="userSpaceOnUse">
<stop stop-color="#D94A27"/>
<stop offset="1" stop-color="#F07A21"/>
</linearGradient>
<linearGradient id="paint1_linear_13_33" x1="81.6554" y1="40.1299" x2="46.0766" y2="63.2913" gradientUnits="userSpaceOnUse">
<stop stop-color="#F29C21"/>
<stop offset="1" stop-color="#F37320"/>
</linearGradient>
<linearGradient id="paint2_linear_13_33" x1="85.9495" y1="-22.011" x2="133.874" y2="107.907" gradientUnits="userSpaceOnUse">
<stop offset="0.004" stop-color="#2B7BBF"/>
<stop offset="1" stop-color="#124894"/>
</linearGradient>
<linearGradient id="paint3_linear_13_33" x1="41.4206" y1="23.1345" x2="81.0779" y2="23.1345" gradientUnits="userSpaceOnUse">
<stop stop-color="#D94A27"/>
<stop offset="1" stop-color="#F07A21"/>
</linearGradient>
</defs>
</svg>
