<svg width="30" height="30" viewBox="0 0 30 30" fill="none" xmlns="http://www.w3.org/2000/svg">
<g clip-path="url(#clip0_60_200)">
<mask id="mask0_60_200" style="mask-type:luminance" maskUnits="userSpaceOnUse" x="0" y="0" width="30" height="30">
<path d="M0 0H30V30H0V0Z" fill="white"/>
</mask>
<g mask="url(#mask0_60_200)">
<path d="M0.745729 29.6149L10.2874 23.3496L7.06002 19.9194L6.70928 20.1995C6.26022 20.6475 2.32431 26.2548 0.394936 29.4749L0.745729 29.6149Z" fill="#DFF6FD"/>
<path d="M29.4058 10.119V11.6591C28.9287 13.5072 25.3951 13.5492 23.6879 13.3392C22.7617 14.9633 20.1916 17.2128 19.0223 18.1344L19.338 22.9297L18.2856 25.7298L16.8473 26.6399L12.1467 24.5398L6.88477 19.9545L4.14856 16.1394L3.41189 14.5293C3.13126 13.8852 3.41189 12.8842 4.6046 11.9042C7.27066 10.1121 10.0887 10.4807 11.1645 10.8891L11.7608 11.4841L12.7781 10.3641C14.9109 7.8439 16.2159 6.86387 16.6018 6.68885V4.90378L16.9526 2.59366C17.3455 1.2776 17.9582 0.948574 18.2154 0.948574C18.2155 0.283543 19.338 -0.136472 20.7412 0.458552L23.0564 1.75362L26.9853 5.98883L29.4058 10.119Z" fill="#56ABE0"/>
<path d="M29.8484 11.8357C31.0363 10.0836 23.6527 0.178467 19.5835 0.178467C23.5825 0.743667 29.806 9.72328 29.2121 11.1645C28.3386 13.284 18.5704 5.37123 18.2169 0.743667C17.7219 5.86576 28.3635 14.0258 29.8484 11.8357Z" fill="black"/>
<path d="M18.924 11.0231C22.5777 14.4496 27.303 14.6263 29.7424 11.9416L29.106 12.0475C28.3141 13.0932 23.7322 14.2848 19.3482 10.6345C17.3119 8.93894 15.9543 5.8657 17.6159 1.27344C16.3431 2.856 14.8936 7.24335 18.924 11.0231Z" fill="black"/>
<path d="M17.333 19.0773C18.607 19.2791 22.259 15.5448 23.9442 13.5666L23.3786 13.3547C21.9879 15.2269 18.832 18.9007 17.333 18.6181C16.4219 18.4463 14.8111 17.3694 13.6562 15.9688C12.4358 14.4887 11.6945 12.6761 11.6763 12.2949C11.648 11.7015 14.3043 8.7742 15.636 7.38477C15.1269 7.75215 11.4266 11.1999 11.1107 12.189C10.5803 13.8492 14.4339 18.6181 17.333 19.0773Z" fill="black"/>
<path d="M17.0502 26.7781C18.1815 26.6368 21.1513 22.9983 19.1361 18.1942L18.6058 18.4768C19.2068 19.6072 19.8079 25.6124 17.0502 26.1776C14.8441 26.6297 6.55002 20.7022 3.36811 14.3438C3.36811 15.6507 5.28871 18.1235 6.55002 19.8191C8.49446 22.4331 13.9744 27.1622 17.0502 26.7781Z" fill="black"/>
<path d="M3.36811 13.5313C4.14591 10.6347 9.7319 9.257 11.9592 11.3058L11.6057 11.5884C10.2197 10.0342 5.10047 10.4934 3.36811 13.5313Z" fill="black"/>
<path d="M0.221616 29.9574C0.787283 30.4943 7.19818 25.8244 10.3329 23.4223L10.0501 23.175C6.99785 25.3298 0.836783 29.6112 0.610517 29.4982C0.384248 29.3852 2.82605 25.6831 4.07522 23.8462C2.55499 25.6595 -0.344053 29.4205 0.221616 29.9574Z" fill="black"/>
<path d="M4.3935 23.5635L6.97436 20.3136L6.72686 19.7131L4.3935 23.5635Z" fill="black"/>
</g>
</g>
<defs>
<clipPath id="clip0_60_200">
<rect width="30" height="30" fill="white"/>
</clipPath>
</defs>
</svg>
